<svg width="8" height="13" viewBox="0 0 8 13" fill="none" xmlns="http://www.w3.org/2000/svg">
<path d="M6.82629 13C6.49766 13 6.23475 12.8921 6.00939 12.6851L0.431918 7.40415C0.140843 7.12526 0.00938879 6.84636 0 6.5045C0 6.16263 0.140843 5.86574 0.42253 5.60485L6.00939 0.323877C6.23475 0.107959 6.50704 0 6.82629 0C7.47418 0 8 0.503802 8 1.12457C8 1.43045 7.85915 1.71834 7.62441 1.94325L2.77934 6.5045L7.62441 11.0657C7.86854 11.2907 8 11.5696 8 11.8844C8 12.4962 7.47418 13 6.82629 13Z" fill="#030303"/>
</svg>
