<svg width="28" height="41" viewBox="0 0 28 41" fill="none" xmlns="http://www.w3.org/2000/svg">
<path d="M9.1027 37.6812V34.9752H12.5567V34.1942H9.1027V31.7852H13.0077V30.9822H9.4547L9.9717 30.6082C9.5427 30.0912 8.6627 29.3432 7.9587 28.8372L7.2987 29.2992C7.9587 29.7832 8.7397 30.4762 9.1687 30.9822H4.3397V31.7852H8.2337V34.1942H4.8457V34.9752H8.2337V37.6812H3.8337V38.4842H13.5577V37.6812H9.1027ZM19.2887 34.8982C19.2887 36.0752 18.8267 37.3622 14.7677 38.1872C14.9437 38.3522 15.1747 38.6712 15.2627 38.8472C19.5087 37.9232 20.1137 36.4052 20.1137 34.9092V32.9292H19.2887V34.8982ZM20.1687 36.7792C21.4447 37.3512 23.0727 38.2642 23.8757 38.8802L24.3817 38.2312C23.5457 37.6262 21.8847 36.7682 20.6307 36.2182L20.1687 36.7792ZM15.0207 29.3982V30.1682H19.1237C18.9917 30.5972 18.7937 31.0922 18.6177 31.4772H16.0987V36.5812H16.9127V32.2362H22.5117V36.5592H23.3697V31.4772H19.4427C19.6407 31.0922 19.8607 30.6192 20.0587 30.1682H24.4257V29.3982H15.0207Z" fill="url(#paint0_linear)"/>
<path d="M3.5 24.4545V11.6812C3.5 11.5371 3.5621 11.4001 3.6704 11.3052L13.6704 2.53893C13.859 2.37358 14.141 2.37358 14.3296 2.53893L24.3296 11.3052C24.4379 11.4001 24.5 11.5304 24.5 11.6744V24.4553C24.5 24.7315 24.2761 24.9545 24 24.9545H4C3.72386 24.9545 3.5 24.7307 3.5 24.4545Z" stroke="url(#paint1_linear)" stroke-width="1.5"/>
<path d="M3.5 24.4545V11.6812C3.5 11.5371 3.5621 11.4001 3.6704 11.3052L13.6704 2.53893C13.859 2.37358 14.141 2.37358 14.3296 2.53893L24.3296 11.3052C24.4379 11.4001 24.5 11.5304 24.5 11.6744V24.4553C24.5 24.7315 24.2761 24.9545 24 24.9545H4C3.72386 24.9545 3.5 24.7307 3.5 24.4545Z" fill="url(#paint2_linear)" stroke="url(#paint3_linear)" stroke-width="1.5"/>
<defs>
<linearGradient id="paint0_linear" x1="14.1737" y1="28.0002" x2="14.1737" y2="41.0002" gradientUnits="userSpaceOnUse">
<stop stop-color="#FF9500"/>
<stop offset="1" stop-color="#FF5E3A"/>
</linearGradient>
<linearGradient id="paint1_linear" x1="14" y1="2.25" x2="14" y2="24.9545" gradientUnits="userSpaceOnUse">
<stop stop-color="#FF9500"/>
<stop offset="1" stop-color="#FF5E3A"/>
</linearGradient>
<linearGradient id="paint2_linear" x1="14" y1="2.25" x2="14" y2="24.9545" gradientUnits="userSpaceOnUse">
<stop stop-color="#FF9500"/>
<stop offset="1" stop-color="#FF5E3A"/>
</linearGradient>
<linearGradient id="paint3_linear" x1="14" y1="2.25" x2="14" y2="24.9545" gradientUnits="userSpaceOnUse">
<stop stop-color="#FF9500"/>
<stop offset="1" stop-color="#FF5E3A"/>
</linearGradient>
</defs>
</svg>
