<svg width="23" height="39" viewBox="0 0 23 39" fill="none" xmlns="http://www.w3.org/2000/svg">
<path d="M11.2074 11.3416C14.1744 11.3416 16.4267 8.8552 16.4267 5.61095C16.4267 2.57945 14.1205 0 11.2074 0C8.29429 0 5.96109 2.57945 6.00155 5.61095C6.00155 8.8552 8.24035 11.3416 11.2074 11.3416ZM1.99602 23.2947H20.3379C21.6056 23.2947 22.3474 22.9224 22.3474 21.779C22.3474 18.4018 18.0586 13.7349 11.1669 13.7349C4.28874 13.7349 0 18.4018 0 21.779C0 22.9224 0.741765 23.2947 1.99602 23.2947Z" fill="#999999"/>
<path d="M10.2717 28.916C9.91968 28.399 9.14968 27.629 8.52268 27.09L7.89568 27.519C8.53368 28.08 9.28168 28.872 9.61168 29.389L10.2717 28.916ZM9.29268 31.314C8.91868 32.018 8.43468 32.689 7.85168 33.316C7.66468 32.59 7.51068 31.743 7.40068 30.808H10.5467V30.027H7.31268C7.22468 29.048 7.18068 27.992 7.18068 26.892H6.34468C6.35568 27.97 6.39968 29.026 6.49868 30.027H3.97968V28.113C4.65068 27.97 5.28868 27.794 5.81668 27.607L5.23368 26.936C4.19968 27.321 2.42868 27.695 0.888684 27.926C0.998684 28.124 1.10868 28.41 1.15268 28.608C1.80168 28.52 2.49468 28.41 3.17668 28.278V30.027H0.822684V30.808H3.17668V32.733C2.21968 32.931 1.32868 33.118 0.668684 33.228L0.899684 34.053C1.55968 33.91 2.35168 33.723 3.17668 33.547V35.78C3.17668 35.978 3.11068 36.033 2.91268 36.033C2.72568 36.044 2.07668 36.055 1.37268 36.022C1.49368 36.253 1.63668 36.627 1.68068 36.847C2.57168 36.847 3.16568 36.825 3.50668 36.693C3.84768 36.561 3.97968 36.319 3.97968 35.791V33.349C4.65068 33.195 5.33268 33.041 6.00368 32.876L5.94868 32.139C5.29968 32.282 4.62868 32.425 3.97968 32.568V30.808H6.56468C6.70768 31.996 6.91668 33.085 7.18068 33.998C6.39968 34.724 5.49768 35.329 4.57368 35.78C4.78268 35.956 5.01368 36.231 5.13468 36.429C5.95968 36 6.74068 35.45 7.45568 34.812C7.96168 36.099 8.62168 36.869 9.49068 36.869C10.3157 36.869 10.6017 36.341 10.7557 34.526C10.5247 34.449 10.2387 34.262 10.0627 34.086C9.99668 35.494 9.86468 36.055 9.56768 36.055C9.01768 36.055 8.52268 35.351 8.10468 34.196C8.87468 33.415 9.52368 32.546 10.0187 31.611L9.29268 31.314ZM15.2217 31.589H12.9117V29.29H15.2217V31.589ZM12.9117 34.955V32.315H15.2217V34.955H12.9117ZM13.8357 26.771C13.7587 27.288 13.5607 28.025 13.3957 28.553H12.1637V36.561H12.9117V35.692H15.9697V28.553H14.1437C14.3307 28.08 14.5287 27.475 14.7157 26.936L13.8357 26.771ZM21.3487 28.52H18.0597C18.2467 28.003 18.4007 27.475 18.5327 26.936L17.7517 26.749C17.3997 28.256 16.8057 29.774 16.0687 30.742C16.2447 30.852 16.5967 31.072 16.7397 31.204C17.1247 30.687 17.4657 30.016 17.7737 29.279H20.5677C20.4247 33.657 20.2597 35.329 19.8967 35.714C19.7867 35.857 19.6657 35.879 19.4457 35.879C19.1927 35.879 18.5327 35.879 17.8177 35.813C17.9717 36.044 18.0707 36.374 18.0927 36.616C18.7087 36.649 19.3357 36.671 19.7207 36.627C20.0947 36.594 20.3477 36.495 20.5897 36.187C21.0297 35.648 21.1727 33.954 21.3487 28.938V28.52ZM19.6107 33.47C19.2587 32.821 18.4997 31.765 17.8837 30.984L17.2457 31.358C17.8507 32.15 18.5877 33.239 18.9177 33.899L19.6107 33.47Z" fill="#999999"/>
</svg>
