<svg width="28" height="41" viewBox="0 0 28 41" fill="none" xmlns="http://www.w3.org/2000/svg">
<path d="M9.10268 37.681V34.975H12.5567V34.194H9.10268V31.785H13.0077V30.982H9.45468L9.97168 30.608C9.54268 30.091 8.66268 29.343 7.95868 28.837L7.29868 29.299C7.95868 29.783 8.73968 30.476 9.16868 30.982H4.33968V31.785H8.23368V34.194H4.84568V34.975H8.23368V37.681H3.83368V38.484H13.5577V37.681H9.10268ZM19.2887 34.898C19.2887 36.075 18.8267 37.362 14.7677 38.187C14.9437 38.352 15.1747 38.671 15.2627 38.847C19.5087 37.923 20.1137 36.405 20.1137 34.909V32.929H19.2887V34.898ZM20.1687 36.779C21.4447 37.351 23.0727 38.264 23.8757 38.88L24.3817 38.231C23.5457 37.626 21.8847 36.768 20.6307 36.218L20.1687 36.779ZM15.0207 29.398V30.168H19.1237C18.9917 30.597 18.7937 31.092 18.6177 31.477H16.0987V36.581H16.9127V32.236H22.5117V36.559H23.3697V31.477H19.4427C19.6407 31.092 19.8607 30.619 20.0587 30.168H24.4257V29.398H15.0207Z" fill="#999999"/>
<path d="M3.5 24.4545V11.6812C3.5 11.5371 3.5621 11.4001 3.6704 11.3052L13.6704 2.53893C13.859 2.37358 14.141 2.37358 14.3296 2.53893L24.3296 11.3052C24.4379 11.4001 24.5 11.5304 24.5 11.6744V24.4553C24.5 24.7315 24.2761 24.9545 24 24.9545H4C3.72386 24.9545 3.5 24.7307 3.5 24.4545Z" stroke="url(#paint0_linear)" stroke-width="1.5"/>
<path d="M3.5 24.4545V11.6812C3.5 11.5371 3.5621 11.4001 3.6704 11.3052L13.6704 2.53893C13.859 2.37358 14.141 2.37358 14.3296 2.53893L24.3296 11.3052C24.4379 11.4001 24.5 11.5304 24.5 11.6744V24.4553C24.5 24.7315 24.2761 24.9545 24 24.9545H4C3.72386 24.9545 3.5 24.7307 3.5 24.4545Z" stroke="#999999" stroke-width="1.5"/>
<defs>
<linearGradient id="paint0_linear" x1="14" y1="2.25" x2="14" y2="24.9545" gradientUnits="userSpaceOnUse">
<stop stop-color="#FF9500"/>
<stop offset="1" stop-color="#FF5E3A"/>
</linearGradient>
</defs>
</svg>
